<svg width="471" height="39" viewBox="0 0 471 39" fill="none" xmlns="http://www.w3.org/2000/svg">
<path d="M27.7744 23.896V1.33618H30.2584C31.1582 1.33618 31.8064 1.89648 31.8064 3.45593V23.896H27.7744ZM10.4221 4.01624H4.1582C3.1145 4.01624 2.53827 3.45593 2.53827 2.17603H20.7184C22.1225 2.17603 22.446 2.85596 22.446 4.01624H14.4183C14.4903 7.73633 14.7424 10.4164 15.7504 13.2161C17.4423 17.0564 19.1705 19.0162 23.6705 21.3765L22.5543 22.776C18.8464 21.4961 15.2462 19.3361 12.438 15.8564C9.6662 19.416 6.31812 21.6963 2.53827 22.776L1.56598 21.2166C5.1662 19.936 8.01001 17.4165 9.27014 13.4163C9.84638 11.4961 10.4221 8.65613 10.4221 4.01624ZM3.61823 27.6564C2.68219 27.6564 2.28613 26.9764 2.28613 25.8961H28.6022C30.7264 25.8961 31.8064 26.9764 31.8064 29.2561V37.3762H27.7744V29.2964C27.7744 28.2161 27.3784 27.6564 26.478 27.6564H3.61823Z" fill="black"/>
<path d="M50.0941 18.2563C58.3745 18.2563 58.3745 3.13611 50.0941 3.13611C41.8143 3.13611 41.8143 18.2563 50.0941 18.2563ZM39.6901 10.5763C39.6901 6.13599 43.2183 1.33618 50.0222 1.33618C56.9705 1.33618 60.1741 5.89612 60.4262 9.2561H65.754V1.29651H67.9502C69.1741 1.29651 69.8585 1.93616 69.8585 3.57617V20.616H65.754V11.2159H60.4262C60.1741 15.3364 56.9705 20.016 50.0222 20.016C43.2183 20.016 39.6901 15.4963 39.6901 10.5763ZM41.9582 34.1365V22.6564H44.334C45.342 22.6564 45.9902 23.2161 45.9902 24.416V26.656H65.754V22.6564H68.0584C69.3542 22.6564 69.8585 23.296 69.8585 24.6565V36.9764H45.0904C43.4342 36.9764 41.9582 35.6965 41.9582 34.1365ZM45.9902 28.4962V33.6561C45.9902 34.4563 46.5664 35.2162 47.3942 35.2162H65.754V28.4962H45.9902Z" fill="black"/>
<path d="M78.5343 16.576V2.21631H96.8221C97.7944 2.21631 98.1542 3.09644 98.1542 4.17615H82.5663V9.77612H95.8504C96.8941 9.77612 97.4703 10.536 97.4703 11.656H82.5663V15.8961C82.5663 16.9764 83.07 17.8163 84.1143 17.8962C89.1905 17.8962 96.57 17.8962 102.654 16.6163V1.33618H104.85C106.074 1.33618 106.758 2.0564 106.758 3.77637V12.776H108.954C110.178 12.776 110.754 13.6561 110.682 14.7365H106.758V22.256H102.654V18.6561C96.6782 19.7365 88.7944 20.2162 84.0423 20.016C79.3621 20.016 78.5343 18.5762 78.5343 16.576ZM79.7225 34.3361V25.2162H103.41C105.714 25.2162 106.614 26.2965 106.614 28.4163V36.9764H83.6462C81.4501 36.9764 79.7225 36.4961 79.7225 34.3361ZM83.8264 27.0564V33.7361C83.8264 34.6565 84.2944 35.1765 85.554 35.1765H102.51V28.816C102.51 27.4165 102.006 27.0564 100.854 27.0564H83.8264Z" fill="black"/>
<path d="M117.99 4.05652C116.91 4.05652 116.442 3.65613 116.19 2.21631H142.83C144.882 2.21631 145.459 3.65613 145.459 5.65625C145.278 11.8562 144.774 14.5765 142.902 20.4963H146.106C147.078 20.4963 147.51 21.4564 147.582 22.3762H133.002V37.2566H128.97V22.3762H116.442C115.542 22.3762 114.786 21.8562 114.786 20.4164H138.475C140.598 15.7765 141.354 11.3362 141.354 6.05603C141.354 4.41602 140.706 4.05652 139.698 4.05652H117.99Z" fill="black"/>
<path d="M172.422 1.65601C178.542 1.65601 180.918 5.21619 181.494 6.49609H188.154V1.29651H190.783C191.826 1.29651 192.259 1.81592 192.259 3.01648V22.4165H188.227V16.3362H181.17C180.378 17.8962 177.246 20.8564 172.422 20.8564C165.51 20.8564 162.09 15.8162 162.09 11.2562C162.09 6.53638 165.51 1.65601 172.422 1.65601ZM172.494 2.9762C163.89 2.9762 163.89 19.2561 172.494 19.2561C181.026 19.2561 181.026 2.9762 172.494 2.9762ZM188.154 8.25635H182.178C182.754 10.3364 182.574 12.776 181.998 14.496H188.154V8.25635ZM178.002 22.8163C189.09 22.8163 192.331 26.3765 192.331 30.5763C192.331 34.7761 189.09 38.0964 178.002 38.0964C167.274 38.0964 163.71 34.7761 163.71 30.5763C163.71 26.3765 167.274 22.8163 178.002 22.8163ZM177.858 24.5765C170.154 24.5765 167.815 27.1364 167.815 30.5763C167.815 33.7764 170.154 36.3362 177.858 36.3362C185.634 36.3362 187.974 33.7764 187.974 30.5763C187.974 27.1364 185.634 24.5765 177.858 24.5765Z" fill="black"/>
<path d="M199.134 11.4961C199.134 6.73596 202.338 1.25623 209.466 1.25623C215.046 1.05603 218.07 4.4563 218.898 6.53638H225.198V1.25623H228.006C228.834 1.25623 229.302 1.97644 229.302 3.09644V23.1361H225.306V16.9362H218.502C217.35 19.1365 214.47 21.656 209.466 21.5364C202.338 21.5364 199.134 16.136 199.134 11.4961ZM209.538 19.9763C218.07 19.9763 218.07 2.57642 209.538 2.57642C200.934 2.57642 200.934 19.9763 209.538 19.9763ZM225.198 15.0959V8.29602H219.222C219.798 10.4963 219.618 13.0165 218.97 15.0959H225.198ZM201.834 27.176C200.934 27.176 200.61 26.6163 200.502 25.4164H226.099C228.258 25.4164 229.302 26.2562 229.302 28.7764V37.3762H225.306V28.816C225.306 27.6564 224.874 27.176 223.974 27.176H201.834Z" fill="black"/>
<path d="M27.7744 23.896V1.33618H30.2584C31.1582 1.33618 31.8064 1.89648 31.8064 3.45593V23.896H27.7744ZM10.4221 4.01624H4.1582C3.1145 4.01624 2.53827 3.45593 2.53827 2.17603H20.7184C22.1225 2.17603 22.446 2.85596 22.446 4.01624H14.4183C14.4903 7.73633 14.7424 10.4164 15.7504 13.2161C17.4423 17.0564 19.1705 19.0162 23.6705 21.3765L22.5543 22.776C18.8464 21.4961 15.2462 19.3361 12.438 15.8564C9.6662 19.416 6.31812 21.6963 2.53827 22.776L1.56598 21.2166C5.1662 19.936 8.01001 17.4165 9.27014 13.4163C9.84638 11.4961 10.4221 8.65613 10.4221 4.01624ZM3.61823 27.6564C2.68219 27.6564 2.28613 26.9764 2.28613 25.8961H28.6022C30.7264 25.8961 31.8064 26.9764 31.8064 29.2561V37.3762H27.7744V29.2964C27.7744 28.2161 27.3784 27.6564 26.478 27.6564H3.61823Z" stroke="black" stroke-width="1.186" stroke-miterlimit="10"/>
<path d="M50.0941 18.2563C58.3745 18.2563 58.3745 3.13611 50.0941 3.13611C41.8143 3.13611 41.8143 18.2563 50.0941 18.2563ZM39.6901 10.5763C39.6901 6.13599 43.2183 1.33618 50.0222 1.33618C56.9705 1.33618 60.1741 5.89612 60.4262 9.2561H65.754V1.29651H67.9502C69.1741 1.29651 69.8585 1.93616 69.8585 3.57617V20.616H65.754V11.2159H60.4262C60.1741 15.3364 56.9705 20.016 50.0222 20.016C43.2183 20.016 39.6901 15.4963 39.6901 10.5763ZM41.9582 34.1365V22.6564H44.334C45.342 22.6564 45.9902 23.2161 45.9902 24.416V26.656H65.754V22.6564H68.0584C69.3542 22.6564 69.8585 23.296 69.8585 24.6565V36.9764H45.0904C43.4342 36.9764 41.9582 35.6965 41.9582 34.1365ZM45.9902 28.4962V33.6561C45.9902 34.4563 46.5664 35.2162 47.3942 35.2162H65.754V28.4962H45.9902Z" stroke="black" stroke-width="1.186" stroke-miterlimit="10"/>
<path d="M78.5343 16.576V2.21631H96.8221C97.7944 2.21631 98.1542 3.09644 98.1542 4.17615H82.5663V9.77612H95.8504C96.8941 9.77612 97.4703 10.536 97.4703 11.656H82.5663V15.8961C82.5663 16.9764 83.07 17.8163 84.1143 17.8962C89.1905 17.8962 96.57 17.8962 102.654 16.6163V1.33618H104.85C106.074 1.33618 106.758 2.0564 106.758 3.77637V12.776H108.954C110.178 12.776 110.754 13.6561 110.682 14.7365H106.758V22.256H102.654V18.6561C96.6782 19.7365 88.7944 20.2162 84.0423 20.016C79.3621 20.016 78.5343 18.5762 78.5343 16.576ZM79.7225 34.3361V25.2162H103.41C105.714 25.2162 106.614 26.2965 106.614 28.4163V36.9764H83.6462C81.4501 36.9764 79.7225 36.4961 79.7225 34.3361ZM83.8264 27.0564V33.7361C83.8264 34.6565 84.2944 35.1765 85.554 35.1765H102.51V28.816C102.51 27.4165 102.006 27.0564 100.854 27.0564H83.8264Z" stroke="black" stroke-width="1.186" stroke-miterlimit="10"/>
<path d="M117.99 4.05652C116.91 4.05652 116.442 3.65613 116.19 2.21631H142.83C144.882 2.21631 145.459 3.65613 145.459 5.65625C145.278 11.8562 144.774 14.5765 142.902 20.4963H146.106C147.078 20.4963 147.51 21.4564 147.582 22.3762H133.002V37.2566H128.97V22.3762H116.442C115.542 22.3762 114.786 21.8562 114.786 20.4164H138.475C140.598 15.7765 141.354 11.3362 141.354 6.05603C141.354 4.41602 140.706 4.05652 139.698 4.05652H117.99Z" stroke="black" stroke-width="1.186" stroke-miterlimit="10"/>
<path d="M172.422 1.65601C178.542 1.65601 180.918 5.21619 181.494 6.49609H188.154V1.29651H190.783C191.826 1.29651 192.259 1.81592 192.259 3.01648V22.4165H188.227V16.3362H181.17C180.378 17.8962 177.246 20.8564 172.422 20.8564C165.51 20.8564 162.09 15.8162 162.09 11.2562C162.09 6.53638 165.51 1.65601 172.422 1.65601ZM172.494 2.9762C163.89 2.9762 163.89 19.2561 172.494 19.2561C181.026 19.2561 181.026 2.9762 172.494 2.9762ZM188.154 8.25635H182.178C182.754 10.3364 182.574 12.776 181.998 14.496H188.154V8.25635ZM178.002 22.8163C189.09 22.8163 192.331 26.3765 192.331 30.5763C192.331 34.7761 189.09 38.0964 178.002 38.0964C167.274 38.0964 163.71 34.7761 163.71 30.5763C163.71 26.3765 167.274 22.8163 178.002 22.8163ZM177.858 24.5765C170.154 24.5765 167.815 27.1364 167.815 30.5763C167.815 33.7764 170.154 36.3362 177.858 36.3362C185.634 36.3362 187.974 33.7764 187.974 30.5763C187.974 27.1364 185.634 24.5765 177.858 24.5765Z" stroke="black" stroke-width="1.186" stroke-miterlimit="10"/>
<path d="M199.134 11.4961C199.134 6.73596 202.338 1.25623 209.466 1.25623C215.046 1.05603 218.07 4.4563 218.898 6.53638H225.198V1.25623H228.006C228.834 1.25623 229.302 1.97644 229.302 3.09644V23.1361H225.306V16.9362H218.502C217.35 19.1365 214.47 21.656 209.466 21.5364C202.338 21.5364 199.134 16.136 199.134 11.4961ZM209.538 19.9763C218.07 19.9763 218.07 2.57642 209.538 2.57642C200.934 2.57642 200.934 19.9763 209.538 19.9763ZM225.198 15.0959V8.29602H219.222C219.798 10.4963 219.618 13.0165 218.97 15.0959H225.198ZM201.834 27.176C200.934 27.176 200.61 26.6163 200.502 25.4164H226.099C228.258 25.4164 229.302 26.2562 229.302 28.7764V37.3762H225.306V28.816C225.306 27.6564 224.874 27.176 223.974 27.176H201.834Z" stroke="black" stroke-width="1.186" stroke-miterlimit="10"/>
<path d="M244.614 36.1787C242.382 33.3287 240.198 29.1589 240.198 23.1585C240.198 17.7285 242.478 13.1088 244.71 10.2588L243.726 8.6987C240.87 11.9388 238.47 16.6789 238.47 23.2487C238.47 29.7288 240.87 34.4388 243.726 37.6788L244.614 36.1787Z" fill="black"/>
<path d="M254.286 9.92871H256.11C256.974 9.92871 257.094 10.3187 256.974 11.4288C256.974 12.7188 256.854 13.2585 256.974 14.0088C258.078 18.5086 260.31 21.3586 263.262 23.1288L262.662 24.0287C259.59 23.0089 256.974 20.3387 255.39 17.3985C254.022 20.2188 251.406 22.7388 249.006 24.2389L248.454 23.3989C250.902 21.5385 253.47 17.5486 254.07 13.2585L254.286 9.92871ZM267.078 16.4688H262.374C261.726 16.4688 261.39 16.0188 261.342 15.1188H267.078V9.65863H268.566C269.43 9.65863 269.766 10.2885 269.766 11.3688V25.1988H267.078V16.4688ZM250.95 31.2587C250.95 28.3189 253.398 25.6785 260.502 25.6785C267.918 25.6785 270.102 28.3189 270.102 31.2587C270.102 34.4085 267.918 36.8686 260.502 36.8686C253.398 36.8686 250.95 34.4085 250.95 31.2587ZM260.43 27.0285C255.294 27.0285 253.734 28.8586 253.734 31.3186C253.734 33.6285 255.294 35.5488 260.43 35.5488C265.638 35.5488 267.15 33.6285 267.15 31.3186C267.15 28.8586 265.638 27.0285 260.43 27.0285Z" fill="black"/>
<path d="M275.718 31.7686C275.718 28.3487 277.47 26.0686 285.51 26.0686C293.382 26.0686 295.302 28.3487 295.302 31.7686C295.302 34.8288 293.382 37.3186 285.51 37.1689C277.47 37.3186 275.718 34.8288 275.718 31.7686ZM292.614 31.7686C292.614 29.3686 290.646 27.3888 285.678 27.3888C280.47 27.3888 278.358 29.3686 278.358 31.7686C278.358 34.0185 280.47 35.9389 285.678 35.9389C290.646 35.9389 292.614 34.0185 292.614 31.7686ZM291.462 11.4586H276.318C275.838 11.4586 275.622 11.0086 275.622 10.3188H293.478C294.798 10.3188 295.518 11.0086 295.446 12.5687C295.398 15.4489 295.134 17.8188 294.582 19.9487L292.014 19.5889C292.398 17.8188 292.782 15.7785 292.782 12.7788C292.83 11.9388 292.278 11.4586 291.462 11.4586ZM275.55 23.1586C275.07 23.1586 274.734 22.5886 274.734 21.8388H282.654V15.8989H284.142C285.126 15.8989 285.342 16.3786 285.342 17.4887V21.8388H295.302C296.046 21.8388 296.382 22.4687 296.382 23.1586H275.55Z" fill="black"/>
<path d="M305.79 11.6687H301.638C300.87 11.6687 300.534 11.2787 300.606 10.3187H312.726C313.614 10.3187 313.83 10.8287 313.83 11.6385H308.526C308.526 15.1188 308.526 15.7785 309.126 17.8485C310.278 20.6985 311.742 22.7987 314.358 24.2389L313.83 25.2885C311.31 24.2686 308.79 22.2888 307.038 19.4685C305.358 22.4687 303.174 24.1789 300.318 25.2885L299.838 24.2988C302.238 22.9489 303.822 21.1787 305.07 17.7588C305.526 16.4688 305.742 15.6288 305.79 11.6687ZM317.382 18.0288H313.11C312.414 18.0288 312.126 17.5789 312.078 16.7086H317.382V9.62888H318.846C319.734 9.62888 320.118 10.2285 320.118 11.3386V26.0086H317.382V18.0288ZM301.734 29.2486C301.182 29.2486 300.966 28.7387 300.87 27.8685H317.982C319.398 27.8685 320.118 28.6787 320.118 30.3889V36.6887H317.382V30.4187C317.382 29.5187 317.094 29.2486 316.494 29.2486H301.734Z" fill="black"/>
<path d="M342.582 30.0589V9.65863H344.214C344.934 9.65863 345.318 10.1388 345.318 11.5185V30.0589H342.582ZM326.934 34.1989V28.5885H328.422C329.238 28.5885 329.574 29.0088 329.574 30.1486V33.9586C329.574 34.7688 329.958 35.0389 330.606 35.0389H345.078C345.846 35.0389 346.062 35.8189 346.062 36.3888H328.806C327.39 36.3888 326.934 35.5488 326.934 34.1989ZM336.342 17.8787C336.342 14.0687 334.926 10.9788 332.094 10.9788C329.19 10.9788 327.774 14.0687 327.774 17.8787C327.774 21.7189 329.19 24.7786 332.094 24.7786C334.926 24.7786 336.342 21.7189 336.342 17.8787ZM332.094 9.80878C341.214 9.80878 341.214 25.8287 332.094 25.8287C322.998 25.8287 322.998 9.80878 332.094 9.80878Z" fill="black"/>
<path d="M379.878 26.5785V9.65863H381.534C382.134 9.65863 382.566 10.0789 382.566 11.2484V26.5785H379.878ZM368.31 11.6687H364.134C363.438 11.6687 363.054 11.2484 363.054 10.2885H375.174C376.11 10.2885 376.326 10.7985 376.326 11.6687H370.974C371.022 14.4587 371.19 16.4688 371.862 18.5685C372.99 21.4488 374.142 22.9187 377.142 24.6888L376.398 25.7385C373.926 24.7786 371.526 23.1585 369.654 20.5488C367.806 23.2185 365.574 24.9287 363.054 25.7385L362.406 24.5689C364.806 23.6085 366.702 21.7189 367.542 18.7187C367.926 17.2786 368.31 15.1486 368.31 11.6687ZM363.774 29.3988C363.15 29.3988 362.886 28.8888 362.886 28.0786H380.43C381.846 28.0786 382.566 28.8888 382.566 30.5986V36.6887H379.878V30.6288C379.878 29.8185 379.614 29.3988 379.014 29.3988H363.774Z" fill="black"/>
<path d="M394.758 22.3488C400.278 22.3488 400.278 11.0086 394.758 11.0086C389.238 11.0086 389.238 22.3488 394.758 22.3488ZM387.822 16.5887C387.822 13.2585 390.174 9.65863 394.71 9.65863C399.342 9.65863 401.478 13.0786 401.646 15.5986H405.198V9.62888H406.662C407.478 9.62888 407.934 10.1086 407.934 11.3386V24.1185H405.198V17.0685H401.646C401.478 20.1588 399.342 23.6685 394.71 23.6685C390.174 23.6685 387.822 20.2787 387.822 16.5887ZM389.334 34.2589V25.6488H390.918C391.59 25.6488 392.022 26.0685 392.022 26.9685V28.6485H405.198V25.6488H406.734C407.598 25.6488 407.934 26.1285 407.934 27.1489V36.3888H391.422C390.318 36.3888 389.334 35.4289 389.334 34.2589ZM392.022 30.0287V33.8986C392.022 34.4987 392.406 35.0686 392.958 35.0686H405.198V30.0287H392.022Z" fill="black"/>
<path d="M424.542 9.8985H426.03C426.726 9.8985 427.062 10.3787 427.062 11.4888V17.5789H430.278V9.62888H431.934C432.63 9.62888 432.966 10.0486 432.966 11.3986V25.3485H430.278V18.9288H427.062V24.8687H424.542V9.8985ZM417.774 10.3187C419.142 10.3187 418.542 11.1285 418.542 12.3585C418.854 16.5287 420.822 20.1886 423.126 22.8587L422.406 23.7587C421.038 22.7987 418.638 19.8585 417.222 17.6086C416.358 19.5285 414.102 22.7388 412.086 24.0287L411.486 23.1888C414.222 19.7688 415.806 16.1085 415.806 10.3187H417.774ZM423.702 25.9788C431.118 25.9788 433.302 28.5885 433.302 31.5287C433.302 34.5889 431.118 37.0787 423.702 37.0787C416.598 37.0787 414.15 34.5889 414.15 31.5287C414.15 28.5885 416.598 25.9788 423.702 25.9788ZM423.63 27.2986C418.494 27.2986 416.934 29.1287 416.934 31.5887C416.934 33.8386 418.494 35.8189 423.63 35.8189C428.838 35.8189 430.35 33.8386 430.35 31.5887C430.35 29.1287 428.838 27.2986 423.63 27.2986Z" fill="black"/>
<path d="M442.206 11.6385C441.606 11.6385 441.102 11.1885 441.102 10.3187H448.662C449.358 10.3187 449.742 10.9486 449.742 11.6385H442.206ZM439.374 14.6689C438.654 14.6689 438.27 14.2486 438.27 13.4388H451.494C452.214 13.4388 452.598 14.0687 452.598 14.6689H439.374ZM445.422 16.1387C450.414 16.1387 452.094 17.6988 452.094 19.1989C452.094 20.4889 450.678 22.1689 446.91 22.3488V24.1789C448.926 24.1789 453.246 23.8488 455.094 23.4886V9.62888H456.75C457.398 9.62888 457.734 10.2285 457.734 11.3386V18.2385H459.726C460.278 18.2385 460.494 18.9586 460.494 19.6187H457.734V26.3089H455.094V24.9585C450.63 25.3787 444.654 25.8589 438.75 25.7087C438.15 25.6785 437.766 25.0789 437.766 24.3286C438.918 24.2686 441.654 24.3885 444.174 24.3286V22.4385C440.19 22.2288 438.99 20.6385 438.99 19.1989C438.99 17.7588 440.838 16.1387 445.422 16.1387ZM445.494 17.3385C440.238 17.3385 440.238 21.3888 445.494 21.3888C450.726 21.3888 450.726 17.3385 445.494 17.3385ZM440.55 28.9785C439.998 28.9785 439.686 28.4086 439.686 27.6588H456.078C457.014 27.6588 457.734 28.2585 457.734 29.4285V32.4589H442.47V33.8089C442.47 34.6187 442.854 35.0389 443.454 35.0389H457.518C458.214 35.0389 458.43 35.6688 458.43 36.3586H441.654C440.382 36.3586 439.734 35.6088 439.734 34.5289V31.1387H454.998V30.2086C454.998 29.4587 454.71 28.9785 454.11 28.9785H440.55Z" fill="black"/>
<path d="M470.55 23.2487C470.55 16.6789 468.15 11.9388 465.294 8.6987L464.31 10.2588C466.542 13.1088 468.822 17.7285 468.822 23.1585C468.822 29.1589 466.638 33.3287 464.406 36.1787L465.294 37.6788C468.15 34.4388 470.55 29.7288 470.55 23.2487Z" fill="black"/>
<path d="M244.614 36.1787C242.382 33.3287 240.198 29.1589 240.198 23.1585C240.198 17.7285 242.478 13.1088 244.71 10.2588L243.726 8.6987C240.87 11.9388 238.47 16.6789 238.47 23.2487C238.47 29.7288 240.87 34.4388 243.726 37.6788L244.614 36.1787Z" stroke="black" stroke-width="0.559" stroke-miterlimit="10"/>
<path d="M254.286 9.92871H256.11C256.974 9.92871 257.094 10.3187 256.974 11.4288C256.974 12.7188 256.854 13.2585 256.974 14.0088C258.078 18.5086 260.31 21.3586 263.262 23.1288L262.662 24.0287C259.59 23.0089 256.974 20.3387 255.39 17.3985C254.022 20.2188 251.406 22.7388 249.006 24.2389L248.454 23.3989C250.902 21.5385 253.47 17.5486 254.07 13.2585L254.286 9.92871ZM267.078 16.4688H262.374C261.726 16.4688 261.39 16.0188 261.342 15.1188H267.078V9.65863H268.566C269.43 9.65863 269.766 10.2885 269.766 11.3688V25.1988H267.078V16.4688ZM250.95 31.2587C250.95 28.3189 253.398 25.6785 260.502 25.6785C267.918 25.6785 270.102 28.3189 270.102 31.2587C270.102 34.4085 267.918 36.8686 260.502 36.8686C253.398 36.8686 250.95 34.4085 250.95 31.2587ZM260.43 27.0285C255.294 27.0285 253.734 28.8586 253.734 31.3186C253.734 33.6285 255.294 35.5488 260.43 35.5488C265.638 35.5488 267.15 33.6285 267.15 31.3186C267.15 28.8586 265.638 27.0285 260.43 27.0285Z" stroke="black" stroke-width="0.559" stroke-miterlimit="10"/>
<path d="M275.718 31.7686C275.718 28.3487 277.47 26.0686 285.51 26.0686C293.382 26.0686 295.302 28.3487 295.302 31.7686C295.302 34.8288 293.382 37.3186 285.51 37.1689C277.47 37.3186 275.718 34.8288 275.718 31.7686ZM292.614 31.7686C292.614 29.3686 290.646 27.3888 285.678 27.3888C280.47 27.3888 278.358 29.3686 278.358 31.7686C278.358 34.0185 280.47 35.9389 285.678 35.9389C290.646 35.9389 292.614 34.0185 292.614 31.7686ZM291.462 11.4586H276.318C275.838 11.4586 275.622 11.0086 275.622 10.3188H293.478C294.798 10.3188 295.518 11.0086 295.446 12.5687C295.398 15.4489 295.134 17.8188 294.582 19.9487L292.014 19.5889C292.398 17.8188 292.782 15.7785 292.782 12.7788C292.83 11.9388 292.278 11.4586 291.462 11.4586ZM275.55 23.1586C275.07 23.1586 274.734 22.5886 274.734 21.8388H282.654V15.8989H284.142C285.126 15.8989 285.342 16.3786 285.342 17.4887V21.8388H295.302C296.046 21.8388 296.382 22.4687 296.382 23.1586H275.55Z" stroke="black" stroke-width="0.559" stroke-miterlimit="10"/>
<path d="M305.79 11.6687H301.638C300.87 11.6687 300.534 11.2787 300.606 10.3187H312.726C313.614 10.3187 313.83 10.8287 313.83 11.6385H308.526C308.526 15.1188 308.526 15.7785 309.126 17.8485C310.278 20.6985 311.742 22.7987 314.358 24.2389L313.83 25.2885C311.31 24.2686 308.79 22.2888 307.038 19.4685C305.358 22.4687 303.174 24.1789 300.318 25.2885L299.838 24.2988C302.238 22.9489 303.822 21.1787 305.07 17.7588C305.526 16.4688 305.742 15.6288 305.79 11.6687ZM317.382 18.0288H313.11C312.414 18.0288 312.126 17.5789 312.078 16.7086H317.382V9.62888H318.846C319.734 9.62888 320.118 10.2285 320.118 11.3386V26.0086H317.382V18.0288ZM301.734 29.2486C301.182 29.2486 300.966 28.7387 300.87 27.8685H317.982C319.398 27.8685 320.118 28.6787 320.118 30.3889V36.6887H317.382V30.4187C317.382 29.5187 317.094 29.2486 316.494 29.2486H301.734Z" stroke="black" stroke-width="0.559" stroke-miterlimit="10"/>
<path d="M342.582 30.0589V9.65863H344.214C344.934 9.65863 345.318 10.1388 345.318 11.5185V30.0589H342.582ZM326.934 34.1989V28.5885H328.422C329.238 28.5885 329.574 29.0088 329.574 30.1486V33.9586C329.574 34.7688 329.958 35.0389 330.606 35.0389H345.078C345.846 35.0389 346.062 35.8189 346.062 36.3888H328.806C327.39 36.3888 326.934 35.5488 326.934 34.1989ZM336.342 17.8787C336.342 14.0687 334.926 10.9788 332.094 10.9788C329.19 10.9788 327.774 14.0687 327.774 17.8787C327.774 21.7189 329.19 24.7786 332.094 24.7786C334.926 24.7786 336.342 21.7189 336.342 17.8787ZM332.094 9.80878C341.214 9.80878 341.214 25.8287 332.094 25.8287C322.998 25.8287 322.998 9.80878 332.094 9.80878Z" stroke="black" stroke-width="0.559" stroke-miterlimit="10"/>
<path d="M379.878 26.5785V9.65863H381.534C382.134 9.65863 382.566 10.0789 382.566 11.2484V26.5785H379.878ZM368.31 11.6687H364.134C363.438 11.6687 363.054 11.2484 363.054 10.2885H375.174C376.11 10.2885 376.326 10.7985 376.326 11.6687H370.974C371.022 14.4587 371.19 16.4688 371.862 18.5685C372.99 21.4488 374.142 22.9187 377.142 24.6888L376.398 25.7385C373.926 24.7786 371.526 23.1585 369.654 20.5488C367.806 23.2185 365.574 24.9287 363.054 25.7385L362.406 24.5689C364.806 23.6085 366.702 21.7189 367.542 18.7187C367.926 17.2786 368.31 15.1486 368.31 11.6687ZM363.774 29.3988C363.15 29.3988 362.886 28.8888 362.886 28.0786H380.43C381.846 28.0786 382.566 28.8888 382.566 30.5986V36.6887H379.878V30.6288C379.878 29.8185 379.614 29.3988 379.014 29.3988H363.774Z" stroke="black" stroke-width="0.559" stroke-miterlimit="10"/>
<path d="M394.758 22.3488C400.278 22.3488 400.278 11.0086 394.758 11.0086C389.238 11.0086 389.238 22.3488 394.758 22.3488ZM387.822 16.5887C387.822 13.2585 390.174 9.65863 394.71 9.65863C399.342 9.65863 401.478 13.0786 401.646 15.5986H405.198V9.62888H406.662C407.478 9.62888 407.934 10.1086 407.934 11.3386V24.1185H405.198V17.0685H401.646C401.478 20.1588 399.342 23.6685 394.71 23.6685C390.174 23.6685 387.822 20.2787 387.822 16.5887ZM389.334 34.2589V25.6488H390.918C391.59 25.6488 392.022 26.0685 392.022 26.9685V28.6485H405.198V25.6488H406.734C407.598 25.6488 407.934 26.1285 407.934 27.1489V36.3888H391.422C390.318 36.3888 389.334 35.4289 389.334 34.2589ZM392.022 30.0287V33.8986C392.022 34.4987 392.406 35.0686 392.958 35.0686H405.198V30.0287H392.022Z" stroke="black" stroke-width="0.559" stroke-miterlimit="10"/>
<path d="M424.542 9.8985H426.03C426.726 9.8985 427.062 10.3787 427.062 11.4888V17.5789H430.278V9.62888H431.934C432.63 9.62888 432.966 10.0486 432.966 11.3986V25.3485H430.278V18.9288H427.062V24.8687H424.542V9.8985ZM417.774 10.3187C419.142 10.3187 418.542 11.1285 418.542 12.3585C418.854 16.5287 420.822 20.1886 423.126 22.8587L422.406 23.7587C421.038 22.7987 418.638 19.8585 417.222 17.6086C416.358 19.5285 414.102 22.7388 412.086 24.0287L411.486 23.1888C414.222 19.7688 415.806 16.1085 415.806 10.3187H417.774ZM423.702 25.9788C431.118 25.9788 433.302 28.5885 433.302 31.5287C433.302 34.5889 431.118 37.0787 423.702 37.0787C416.598 37.0787 414.15 34.5889 414.15 31.5287C414.15 28.5885 416.598 25.9788 423.702 25.9788ZM423.63 27.2986C418.494 27.2986 416.934 29.1287 416.934 31.5887C416.934 33.8386 418.494 35.8189 423.63 35.8189C428.838 35.8189 430.35 33.8386 430.35 31.5887C430.35 29.1287 428.838 27.2986 423.63 27.2986Z" stroke="black" stroke-width="0.559" stroke-miterlimit="10"/>
<path d="M442.206 11.6385C441.606 11.6385 441.102 11.1885 441.102 10.3187H448.662C449.358 10.3187 449.742 10.9486 449.742 11.6385H442.206ZM439.374 14.6689C438.654 14.6689 438.27 14.2486 438.27 13.4388H451.494C452.214 13.4388 452.598 14.0687 452.598 14.6689H439.374ZM445.422 16.1387C450.414 16.1387 452.094 17.6988 452.094 19.1989C452.094 20.4889 450.678 22.1689 446.91 22.3488V24.1789C448.926 24.1789 453.246 23.8488 455.094 23.4886V9.62888H456.75C457.398 9.62888 457.734 10.2285 457.734 11.3386V18.2385H459.726C460.278 18.2385 460.494 18.9586 460.494 19.6187H457.734V26.3089H455.094V24.9585C450.63 25.3787 444.654 25.8589 438.75 25.7087C438.15 25.6785 437.766 25.0789 437.766 24.3286C438.918 24.2686 441.654 24.3885 444.174 24.3286V22.4385C440.19 22.2288 438.99 20.6385 438.99 19.1989C438.99 17.7588 440.838 16.1387 445.422 16.1387ZM445.494 17.3385C440.238 17.3385 440.238 21.3888 445.494 21.3888C450.726 21.3888 450.726 17.3385 445.494 17.3385ZM440.55 28.9785C439.998 28.9785 439.686 28.4086 439.686 27.6588H456.078C457.014 27.6588 457.734 28.2585 457.734 29.4285V32.4589H442.47V33.8089C442.47 34.6187 442.854 35.0389 443.454 35.0389H457.518C458.214 35.0389 458.43 35.6688 458.43 36.3586H441.654C440.382 36.3586 439.734 35.6088 439.734 34.5289V31.1387H454.998V30.2086C454.998 29.4587 454.71 28.9785 454.11 28.9785H440.55Z" stroke="black" stroke-width="0.559" stroke-miterlimit="10"/>
<path d="M470.55 23.2487C470.55 16.6789 468.15 11.9388 465.294 8.6987L464.31 10.2588C466.542 13.1088 468.822 17.7285 468.822 23.1585C468.822 29.1589 466.638 33.3287 464.406 36.1787L465.294 37.6788C468.15 34.4388 470.55 29.7288 470.55 23.2487Z" stroke="black" stroke-width="0.559" stroke-miterlimit="10"/>
</svg>
